<svg width="509" height="72" viewBox="0 0 509 72" fill="none" xmlns="http://www.w3.org/2000/svg">
<path d="M17.45 6.668C22.334 6.668 26.602 7.636 30.254 9.572C33.906 11.508 36.722 14.236 38.702 17.756C40.726 21.232 41.738 25.258 41.738 29.834C41.738 34.366 40.726 38.392 38.702 41.912C36.722 45.432 33.884 48.16 30.188 50.096C26.536 52.032 22.29 53 17.45 53H0.0920002V6.668H17.45ZM16.724 43.232C20.992 43.232 24.314 42.066 26.69 39.734C29.066 37.402 30.254 34.102 30.254 29.834C30.254 25.566 29.066 22.244 26.69 19.868C24.314 17.492 20.992 16.304 16.724 16.304H11.378V43.232H16.724ZM82.7611 33.992C82.7611 35.048 82.6951 36.148 82.5631 37.292H57.0211C57.1971 39.58 57.9231 41.34 59.1991 42.572C60.5191 43.76 62.1251 44.354 64.0171 44.354C66.8331 44.354 68.7911 43.166 69.8911 40.79H81.9031C81.2871 43.21 80.1651 45.388 78.5371 47.324C76.9531 49.26 74.9511 50.778 72.5311 51.878C70.1111 52.978 67.4051 53.528 64.4131 53.528C60.8051 53.528 57.5931 52.758 54.7771 51.218C51.9611 49.678 49.7611 47.478 48.1771 44.618C46.5931 41.758 45.8011 38.414 45.8011 34.586C45.8011 30.758 46.5711 27.414 48.1111 24.554C49.6951 21.694 51.8951 19.494 54.7111 17.954C57.5271 16.414 60.7611 15.644 64.4131 15.644C67.9771 15.644 71.1451 16.392 73.9171 17.888C76.6891 19.384 78.8451 21.518 80.3851 24.29C81.9691 27.062 82.7611 30.296 82.7611 33.992ZM71.2111 31.022C71.2111 29.086 70.5511 27.546 69.2311 26.402C67.9111 25.258 66.2611 24.686 64.2811 24.686C62.3891 24.686 60.7831 25.236 59.4631 26.336C58.1871 27.436 57.3951 28.998 57.0871 31.022H71.2111ZM103.697 53.528C100.485 53.528 97.625 52.978 95.117 51.878C92.609 50.778 90.629 49.282 89.177 47.39C87.725 45.454 86.911 43.298 86.735 40.922H97.889C98.021 42.198 98.615 43.232 99.671 44.024C100.727 44.816 102.025 45.212 103.565 45.212C104.973 45.212 106.051 44.948 106.799 44.42C107.591 43.848 107.987 43.122 107.987 42.242C107.987 41.186 107.437 40.416 106.337 39.932C105.237 39.404 103.455 38.832 100.991 38.216C98.351 37.6 96.151 36.962 94.391 36.302C92.631 35.598 91.113 34.52 89.837 33.068C88.561 31.572 87.923 29.57 87.923 27.062C87.923 24.95 88.495 23.036 89.639 21.32C90.827 19.56 92.543 18.174 94.787 17.162C97.075 16.15 99.781 15.644 102.905 15.644C107.525 15.644 111.155 16.788 113.795 19.076C116.479 21.364 118.019 24.4 118.415 28.184H107.987C107.811 26.908 107.239 25.896 106.271 25.148C105.347 24.4 104.115 24.026 102.575 24.026C101.255 24.026 100.243 24.29 99.539 24.818C98.835 25.302 98.483 25.984 98.483 26.864C98.483 27.92 99.033 28.712 100.133 29.24C101.277 29.768 103.037 30.296 105.413 30.824C108.141 31.528 110.363 32.232 112.079 32.936C113.795 33.596 115.291 34.696 116.567 36.236C117.887 37.732 118.569 39.756 118.613 42.308C118.613 44.464 117.997 46.4 116.765 48.116C115.577 49.788 113.839 51.108 111.551 52.076C109.307 53.044 106.689 53.528 103.697 53.528ZM131.194 12.344C129.214 12.344 127.586 11.772 126.31 10.628C125.078 9.44 124.462 7.988 124.462 6.272C124.462 4.512 125.078 3.06 126.31 1.916C127.586 0.727996 129.214 0.133996 131.194 0.133996C133.13 0.133996 134.714 0.727996 135.946 1.916C137.222 3.06 137.86 4.512 137.86 6.272C137.86 7.988 137.222 9.44 135.946 10.628C134.714 11.772 133.13 12.344 131.194 12.344ZM136.804 16.172V53H125.518V16.172H136.804ZM158.975 15.644C161.571 15.644 163.837 16.172 165.773 17.228C167.753 18.284 169.271 19.67 170.327 21.386V16.172H181.613V52.934C181.613 56.322 180.931 59.38 179.567 62.108C178.247 64.88 176.201 67.08 173.429 68.708C170.701 70.336 167.291 71.15 163.199 71.15C157.743 71.15 153.321 69.852 149.933 67.256C146.545 64.704 144.609 61.228 144.125 56.828H155.279C155.631 58.236 156.467 59.336 157.787 60.128C159.107 60.964 160.735 61.382 162.671 61.382C165.003 61.382 166.851 60.7 168.215 59.336C169.623 58.016 170.327 55.882 170.327 52.934V47.72C169.227 49.436 167.709 50.844 165.773 51.944C163.837 53 161.571 53.528 158.975 53.528C155.939 53.528 153.189 52.758 150.725 51.218C148.261 49.634 146.303 47.412 144.851 44.552C143.443 41.648 142.739 38.304 142.739 34.52C142.739 30.736 143.443 27.414 144.851 24.554C146.303 21.694 148.261 19.494 150.725 17.954C153.189 16.414 155.939 15.644 158.975 15.644ZM170.327 34.586C170.327 31.77 169.535 29.548 167.951 27.92C166.411 26.292 164.519 25.478 162.275 25.478C160.031 25.478 158.117 26.292 156.533 27.92C154.993 29.504 154.223 31.704 154.223 34.52C154.223 37.336 154.993 39.58 156.533 41.252C158.117 42.88 160.031 43.694 162.275 43.694C164.519 43.694 166.411 42.88 167.951 41.252C169.535 39.624 170.327 37.402 170.327 34.586ZM212.218 15.776C216.53 15.776 219.962 17.184 222.514 20C225.11 22.772 226.408 26.6 226.408 31.484V53H215.188V33.002C215.188 30.538 214.55 28.624 213.274 27.26C211.998 25.896 210.282 25.214 208.126 25.214C205.97 25.214 204.254 25.896 202.978 27.26C201.702 28.624 201.064 30.538 201.064 33.002V53H189.778V16.172H201.064V21.056C202.208 19.428 203.748 18.152 205.684 17.228C207.62 16.26 209.798 15.776 212.218 15.776Z" fill="black"/>
<path d="M263.092 44.816H245.8L243.028 53H231.214L247.978 6.668H261.046L277.81 53H265.864L263.092 44.816ZM260.188 36.104L254.446 19.142L248.77 36.104H260.188ZM313.668 21.32C312.832 19.78 311.622 18.614 310.038 17.822C308.498 16.986 306.672 16.568 304.56 16.568C300.908 16.568 297.982 17.778 295.782 20.198C293.582 22.574 292.482 25.764 292.482 29.768C292.482 34.036 293.626 37.38 295.914 39.8C298.246 42.176 301.436 43.364 305.484 43.364C308.256 43.364 310.588 42.66 312.48 41.252C314.416 39.844 315.824 37.82 316.704 35.18H302.382V26.864H326.934V37.358C326.098 40.174 324.668 42.792 322.644 45.212C320.664 47.632 318.134 49.59 315.054 51.086C311.974 52.582 308.498 53.33 304.626 53.33C300.05 53.33 295.958 52.34 292.35 50.36C288.786 48.336 285.992 45.542 283.968 41.978C281.988 38.414 280.998 34.344 280.998 29.768C280.998 25.192 281.988 21.122 283.968 17.558C285.992 13.95 288.786 11.156 292.35 9.176C295.914 7.152 299.984 6.14 304.56 6.14C310.104 6.14 314.768 7.482 318.552 10.166C322.38 12.85 324.91 16.568 326.142 21.32H313.668ZM344.472 15.71V25.082H359.586V33.794H344.472V43.958H361.566V53H333.186V6.668H361.566V15.71H344.472ZM410.341 53H399.055L380.179 24.422V53H368.893V6.668H380.179L399.055 35.378V6.668H410.341V53ZM416.608 29.768C416.608 25.192 417.598 21.122 419.578 17.558C421.558 13.95 424.308 11.156 427.828 9.176C431.392 7.152 435.418 6.14 439.906 6.14C445.406 6.14 450.114 7.592 454.03 10.496C457.946 13.4 460.564 17.36 461.884 22.376H449.476C448.552 20.44 447.232 18.966 445.516 17.954C443.844 16.942 441.93 16.436 439.774 16.436C436.298 16.436 433.482 17.646 431.326 20.066C429.17 22.486 428.092 25.72 428.092 29.768C428.092 33.816 429.17 37.05 431.326 39.47C433.482 41.89 436.298 43.1 439.774 43.1C441.93 43.1 443.844 42.594 445.516 41.582C447.232 40.57 448.552 39.096 449.476 37.16H461.884C460.564 42.176 457.946 46.136 454.03 49.04C450.114 51.9 445.406 53.33 439.906 53.33C435.418 53.33 431.392 52.34 427.828 50.36C424.308 48.336 421.558 45.542 419.578 41.978C417.598 38.414 416.608 34.344 416.608 29.768ZM508.527 6.668L492.489 37.688V53H481.203V37.688L465.165 6.668H477.969L486.945 26.072L495.855 6.668H508.527Z" fill="#F55F1D"/>
</svg>
