<svg width="507" height="71" viewBox="0 0 507 71" fill="none" xmlns="http://www.w3.org/2000/svg">
<path d="M97.716 1.906L79.965 70H59.886L49.022 25.186L37.77 70H17.691L0.425 1.906H18.176L27.973 51.473L40.098 1.906H58.334L69.974 51.473L79.868 1.906H97.716ZM122.622 15.195V28.969H144.835V41.773H122.622V56.711H147.745V70H106.035V1.906H147.745V15.195H122.622ZM199.738 35.08C203.683 35.9207 206.851 37.893 209.244 40.997C211.637 44.0363 212.833 47.5283 212.833 51.473C212.833 57.1637 210.828 61.6903 206.819 65.053C202.874 68.351 197.345 70 190.232 70H158.513V1.906H189.165C196.084 1.906 201.484 3.49033 205.364 6.65899C209.309 9.82766 211.281 14.128 211.281 19.56C211.281 23.5693 210.214 26.8997 208.08 29.551C206.011 32.2023 203.23 34.0453 199.738 35.08ZM175.1 29.454H185.964C188.68 29.454 190.749 28.872 192.172 27.708C193.659 26.4793 194.403 24.701 194.403 22.373C194.403 20.045 193.659 18.2667 192.172 17.038C190.749 15.8093 188.68 15.195 185.964 15.195H175.1V29.454ZM187.322 56.614C190.103 56.614 192.237 55.9997 193.724 54.771C195.276 53.4777 196.052 51.6347 196.052 49.242C196.052 46.8493 195.244 44.974 193.627 43.616C192.075 42.258 189.909 41.579 187.128 41.579H175.1V56.614H187.322ZM259.596 57.196H281.324V70H243.009V1.906H259.596V57.196ZM321.44 70.679C315.038 70.679 309.153 69.1917 303.786 66.217C298.483 63.2423 294.247 59.1037 291.079 53.801C287.975 48.4337 286.423 42.4197 286.423 35.759C286.423 29.0983 287.975 23.1167 291.079 17.814C294.247 12.5113 298.483 8.37267 303.786 5.398C309.153 2.42333 315.038 0.935999 321.44 0.935999C327.842 0.935999 333.694 2.42333 338.997 5.398C344.364 8.37267 348.567 12.5113 351.607 17.814C354.711 23.1167 356.263 29.0983 356.263 35.759C356.263 42.4197 354.711 48.4337 351.607 53.801C348.503 59.1037 344.299 63.2423 338.997 66.217C333.694 69.1917 327.842 70.679 321.44 70.679ZM321.44 55.547C326.872 55.547 331.204 53.7363 334.438 50.115C337.736 46.4937 339.385 41.7083 339.385 35.759C339.385 29.745 337.736 24.9597 334.438 21.403C331.204 17.7817 326.872 15.971 321.44 15.971C315.943 15.971 311.546 17.7493 308.248 21.306C305.014 24.8627 303.398 29.6803 303.398 35.759C303.398 41.773 305.014 46.5907 308.248 50.212C311.546 53.7687 315.943 55.547 321.44 55.547ZM410.693 23.44C409.464 21.1767 407.686 19.463 405.358 18.299C403.094 17.0703 400.411 16.456 397.307 16.456C391.939 16.456 387.639 18.2343 384.406 21.791C381.172 25.283 379.556 29.9713 379.556 35.856C379.556 42.1287 381.237 47.0433 384.6 50.6C388.027 54.092 392.715 55.838 398.665 55.838C402.739 55.838 406.166 54.8033 408.947 52.734C411.792 50.6647 413.861 47.69 415.155 43.81H394.106V31.588H430.19V47.011C428.961 51.1497 426.859 54.9973 423.885 58.554C420.975 62.1107 417.256 64.9883 412.73 67.187C408.203 69.3857 403.094 70.485 397.404 70.485C390.678 70.485 384.664 69.03 379.362 66.12C374.124 63.1453 370.017 59.039 367.043 53.801C364.133 48.563 362.678 42.5813 362.678 35.856C362.678 29.1307 364.133 23.149 367.043 17.911C370.017 12.6083 374.124 8.502 379.362 5.592C384.6 2.61733 390.581 1.13 397.307 1.13C405.455 1.13 412.309 3.10233 417.871 7.047C423.497 10.9917 427.215 16.456 429.026 23.44H410.693ZM471.581 70.679C465.179 70.679 459.295 69.1917 453.927 66.217C448.625 63.2423 444.389 59.1037 441.22 53.801C438.116 48.4337 436.564 42.4197 436.564 35.759C436.564 29.0983 438.116 23.1167 441.22 17.814C444.389 12.5113 448.625 8.37267 453.927 5.398C459.295 2.42333 465.179 0.935999 471.581 0.935999C477.983 0.935999 483.836 2.42333 489.138 5.398C494.506 8.37267 498.709 12.5113 501.748 17.814C504.852 23.1167 506.404 29.0983 506.404 35.759C506.404 42.4197 504.852 48.4337 501.748 53.801C498.644 59.1037 494.441 63.2423 489.138 66.217C483.836 69.1917 477.983 70.679 471.581 70.679ZM471.581 55.547C477.013 55.547 481.346 53.7363 484.579 50.115C487.877 46.4937 489.526 41.7083 489.526 35.759C489.526 29.745 487.877 24.9597 484.579 21.403C481.346 17.7817 477.013 15.971 471.581 15.971C466.085 15.971 461.687 17.7493 458.389 21.306C455.156 24.8627 453.539 29.6803 453.539 35.759C453.539 41.773 455.156 46.5907 458.389 50.212C461.687 53.7687 466.085 55.547 471.581 55.547Z" fill="white"/>
</svg>
